<svg xmlns="http://www.w3.org/2000/svg" xmlns:xlink="http://www.w3.org/1999/xlink" aria-hidden="true" role="img" class="iconify iconify--logos" width="31.88" height="32" preserveAspectRatio="xMidYMid meet" viewBox="0 0 256 257">
    <defs>
        <linearGradient id="IconifyId1813088fe1fbc01fb466" x1="-.828%" x2="57.636%" y1="7.652%" y2="78.411%">
            <stop offset="0%" stop-color="#41D1FF"></stop>
            <stop offset="100%" stop-color="#BD34FE"></stop>
        </linearGradient>
        <linearGradient id="IconifyId1813088fe1fbc01fb467" x1="43.376%" x2="50.316%" y1="2.242%" y2="89.03%">
            <stop offset="0%" stop-color="#FFEA83"></stop>
            <stop offset="8.333%" stop-color="#FFDD35"></stop>
            <stop offset="100%" stop-color="#FFA800"></stop>
        </linearGradient>
    </defs>
    <path fill="url(#IconifyId1813088fe1fbc01fb466)" d="M255.153 37.938L134.897 252.976c-2.483 4.44-8.862 4.466-11.382.048L.875 37.958c-2.746-4.814 1.371-10.646 6.827-9.67l120.385 21.517a6.537 6.537 0 0 0 2.<EUGPSCoordinates>.004l117.<EUGPSCoordinates>-21.<EUGPSCoordinates>.9919.<EUGPSCoordinates>7966.<EUGPSCoordinates>.62Z"></path>
    <path fill="url(#IconifyId1813088fe1fbc01fb467)" d="M185.<EUGPSCoordinates>.063L96.<EUGPSCoordinates>.501a3.<EUGPSCoordinates>2683.<EUGPSCoordinates>014l-5.<EUGPSCoordinates>.456a3.<EUGPSCoordinates>2683.<EUGPSCoordinates>378l24.<EUGPSCoordinates>-5.<EUGPSCoordinates>18c2.<EUGPSCoordinates>5354.<EUGPSCoordinates>5073.<EUGPSCoordinates>838l-7.<EUGPSCoordinates>.047c-.4952.<EUGPSCoordinates>4261.<EUGPSCoordinates>54.<EUGPSCoordinates>78l15.<EUGPSCoordinates>.649c2.<EUGPSCoordinates>7214.<EUGPSCoordinates>3614.<EUGPSCoordinates>788l-11.<EUGPSCoordinates>.621c-.7323.<EUGPSCoordinates>5423.<EUGPSCoordinates>4735.<EUGPSCoordinates>.437l1.<EUGPSCoordinates>.028l72.<EUGPSCoordinates>-144.<EUGPSCoordinates>.423-.88-5.<EUGPSCoordinates>.186-3.<EUGPSCoordinates>-4.<EUGPSCoordinates>.672l-25.<EUGPSCoordinates>.922c-2.<EUGPSCoordinates>.462-4.<EUGPSCoordinates>-1.<EUGPSCoordinates>-4.<EUGPSCoordinates>.114l16.<EUGPSCoordinates>-57.<EUGPSCoordinates>.705c.<EUGPSCoordinates>-2.<EUGPSCoordinates>-4.<EUGPSCoordinates>.583-3.<EUGPSCoordinates>-4.Z"></path>
    <circle cx="250" cy="240" r="<PhoneNumber>" fill="#ff0000"/>
</svg>
